<svg width="24" height="24" viewBox="0 0 24 24" fill="none" xmlns="http://www.w3.org/2000/svg">
<path d="M6.15186 10.56C6.15186 9.76798 6.30386 9.00798 6.61586 8.27998C6.92786 7.55198 7.34386 6.93598 7.87186 6.41598C8.39986 5.89598 9.02386 5.47998 9.74386 5.16798C10.4639 4.85598 11.2239 4.70398 12.0159 4.70398C12.8079 4.70398 13.5679 4.85598 14.2959 5.16798C15.0159 5.47998 15.6399 5.89598 16.1599 6.41598C16.6799 6.93598 17.0959 7.55998 17.4079 8.27998C17.7199 8.99998 17.8719 9.75998 17.8719 10.56C17.8719 11.856 17.4879 13.008 16.7199 14.032C15.9519 15.048 14.9599 15.744 13.7519 16.12V18.752H10.3599V16.152C9.12786 15.792 8.11186 15.096 7.32786 14.064C6.54386 13.032 6.15186 11.864 6.15186 10.56ZM7.43986 10.56C7.43986 11.8 7.88786 12.864 8.79186 13.752C9.67986 14.648 10.7519 15.096 12.0079 15.096C12.8319 15.096 13.5999 14.896 14.2959 14.488C14.9999 14.08 15.5519 13.528 15.9679 12.832C16.3759 12.136 16.5839 11.376 16.5839 10.552C16.5839 9.93598 16.4639 9.35198 16.2239 8.78398C15.9839 8.21598 15.6559 7.73598 15.2479 7.32798C14.8399 6.91998 14.3519 6.59198 13.7839 6.35198C13.2159 6.11198 12.6319 5.99198 12.0159 5.99198C11.3999 5.99198 10.8159 6.11198 10.2479 6.35198C9.67986 6.59198 9.19986 6.91998 8.79186 7.32798C8.38386 7.73598 8.05586 8.22398 7.81586 8.78398C7.55986 9.35998 7.43986 9.94398 7.43986 10.56ZM7.90386 10.848V10.272H9.63986V10.848H7.90386ZM8.77586 8.01598L9.19185 7.59998L10.4079 8.81598L9.99185 9.23998L8.77586 8.01598ZM10.7999 11.96C10.7999 11.624 10.9199 11.336 11.1519 11.088C11.3839 10.84 11.6719 10.712 11.9999 10.704L14.1839 7.11198L14.7119 7.39198L13.0959 11.256C13.2399 11.456 13.3039 11.688 13.3039 11.96C13.3039 12.312 13.1839 12.608 12.9359 12.848C12.6879 13.088 12.3919 13.208 12.0399 13.208C11.6959 13.208 11.3999 13.088 11.1599 12.848C10.9199 12.608 10.7999 12.312 10.7999 11.96ZM11.8479 8.22398V6.49598H12.3999V8.23198H11.8479V8.22398ZM14.1999 10.84V10.248H15.9359V10.84H14.1999Z" fill="#64748B"/>
</svg>
