<svg width="24" height="24" viewBox="0 0 24 24" fill="none" xmlns="http://www.w3.org/2000/svg">
<path d="M3.31201 11.808C3.31201 11.616 3.38401 11.456 3.52801 11.32C3.66401 11.184 3.83201 11.12 4.02401 11.12H5.67201C5.86401 11.12 6.02401 11.184 6.15201 11.32C6.28801 11.456 6.35201 11.616 6.35201 11.808C6.35201 12.008 6.28801 12.176 6.15201 12.312C6.01601 12.448 5.85601 12.512 5.67201 12.512H4.02401C3.82401 12.512 3.65601 12.448 3.52001 12.312C3.37601 12.176 3.31201 12.008 3.31201 11.808ZM5.64801 6.19202C5.64801 6.00802 5.71201 5.84002 5.84001 5.69602C6.00001 5.56802 6.16801 5.49602 6.36801 5.49602C6.53601 5.49602 6.69601 5.56002 6.84001 5.69602L8.00001 6.88002C8.13601 7.00802 8.20001 7.16802 8.20001 7.36002C8.20001 7.55202 8.13601 7.71202 8.00001 7.84002C7.86401 7.97602 7.71201 8.04002 7.52001 8.04002C7.31201 8.04002 7.15201 7.97602 7.03201 7.84002L5.83201 6.68802C5.72001 6.55202 5.64801 6.38402 5.64801 6.19202ZM7.73601 11.808C7.73601 11.24 7.84801 10.696 8.08001 10.176C8.30401 9.65602 8.61601 9.20002 8.99201 8.82402C9.37601 8.44802 9.83201 8.14402 10.352 7.92002C10.872 7.69602 11.424 7.57602 12 7.57602C12.768 7.57602 13.472 7.76802 14.128 8.15202C14.784 8.53602 15.304 9.04802 15.68 9.70402C16.056 10.352 16.248 11.056 16.248 11.808C16.248 11.928 16.24 12.04 16.224 12.144C16 12.008 15.744 11.944 15.448 11.944C15.256 11.944 15.064 11.984 14.872 12.064C14.88 12.008 14.88 11.92 14.88 11.808C14.88 11.024 14.6 10.36 14.032 9.80802C13.464 9.25602 12.784 8.97602 11.992 8.97602C11.2 8.97602 10.528 9.25602 9.96001 9.80802C9.39201 10.36 9.12001 11.024 9.12001 11.808V11.952C8.88801 11.968 8.66401 12.032 8.44801 12.152C8.44001 12.16 8.41601 12.176 8.36801 12.208C8.32001 12.24 8.27201 12.28 8.21601 12.32C8.16001 12.36 8.10401 12.408 8.03201 12.472C7.96001 12.536 7.88801 12.6 7.82401 12.664C7.76001 12.408 7.73601 12.12 7.73601 11.808ZM7.76001 14.728V14.608C7.75201 14.536 7.76001 14.448 7.77601 14.344C7.81601 14.056 7.92801 13.784 8.11201 13.528C8.21601 13.4 8.28801 13.312 8.32801 13.28C8.33601 13.264 8.34401 13.248 8.36001 13.232L8.39201 13.2C8.41601 13.192 8.44801 13.16 8.48801 13.12C8.50401 13.104 8.52801 13.08 8.55201 13.056C8.57601 13.032 8.60001 13.024 8.60801 13.008C8.64801 12.968 8.68801 12.944 8.72001 12.928L8.85601 12.84C8.96801 12.768 9.10401 12.728 9.25601 12.728H9.28001C9.36001 12.728 9.43201 12.736 9.48801 12.752C9.51201 12.76 9.54401 12.776 9.59201 12.808V12.816C9.70401 12.864 9.80001 12.944 9.86401 13.048C9.92801 13.152 9.96801 13.264 9.96801 13.384C9.96801 13.52 9.92801 13.632 9.85601 13.72C9.80801 13.792 9.74401 13.856 9.68001 13.904C9.66401 13.912 9.64801 13.92 9.63201 13.928C9.61601 13.936 9.60001 13.944 9.60001 13.944L9.55201 13.976C9.52001 14 9.49601 14.024 9.47201 14.04C9.44801 14.056 9.42401 14.088 9.38401 14.128C9.35201 14.168 9.32001 14.2 9.29601 14.24C9.27201 14.272 9.24801 14.32 9.22401 14.36C9.20001 14.408 9.18401 14.456 9.18401 14.496V14.616C9.21601 14.736 9.24801 14.832 9.27201 14.904C9.32801 15.016 9.41601 15.128 9.54401 15.256C9.55201 15.272 9.61601 15.336 9.73601 15.456C10.424 16.08 10.752 16.752 10.704 17.456C10.688 17.696 10.632 17.928 10.536 18.152C10.44 18.376 10.328 18.56 10.192 18.712C10.064 18.864 9.96001 18.976 9.88001 19.056C9.80001 19.128 9.73601 19.184 9.68001 19.224C9.67201 19.232 9.65601 19.24 9.63201 19.256C9.60801 19.272 9.58401 19.288 9.57601 19.288C9.51201 19.32 9.45601 19.336 9.40001 19.344C9.32801 19.352 9.28001 19.36 9.24001 19.36C9.00001 19.36 8.80801 19.28 8.67201 19.12C8.56001 18.984 8.51201 18.824 8.52801 18.648C8.54401 18.472 8.63201 18.328 8.79201 18.224L8.80001 18.2C8.80801 18.192 8.82401 18.176 8.84001 18.168C8.85601 18.152 8.87201 18.136 8.89601 18.12C8.92001 18.104 8.94401 18.08 8.96001 18.056C8.98401 18.032 9.00801 18 9.02401 17.976C9.04801 17.944 9.07201 17.912 9.08801 17.88C9.11201 17.848 9.13601 17.808 9.15201 17.768C9.17601 17.728 9.19201 17.688 9.20801 17.648C9.22401 17.608 9.23201 17.568 9.24801 17.52C9.25601 17.472 9.26401 17.424 9.26401 17.384C9.28001 17.224 9.24001 17.064 9.14401 16.904C9.10401 16.816 9.04801 16.728 8.96801 16.64C8.91201 16.576 8.87201 16.536 8.84801 16.512C8.77601 16.424 8.73601 16.376 8.72801 16.368C8.71201 16.36 8.69601 16.344 8.67201 16.32C8.64801 16.296 8.63201 16.288 8.62401 16.28C8.50401 16.168 8.41601 16.072 8.35201 15.992C8.25601 15.864 8.18401 15.784 8.16001 15.736C8.00801 15.528 7.90401 15.32 7.84801 15.112C7.81601 15 7.79201 14.912 7.78401 14.856C7.78401 14.84 7.77601 14.816 7.76801 14.792C7.76001 14.768 7.76001 14.752 7.76001 14.728ZM10.864 14.464C10.864 14.416 10.864 14.384 10.872 14.352C10.888 14.176 10.944 14.008 11.032 13.84C11.12 13.672 11.208 13.528 11.312 13.416C11.416 13.304 11.512 13.2 11.616 13.112C11.72 13.024 11.8 12.96 11.864 12.912L11.96 12.856C12.08 12.784 12.216 12.744 12.36 12.744C12.448 12.744 12.528 12.752 12.6 12.768C12.608 12.768 12.616 12.776 12.64 12.784C12.664 12.8 12.68 12.808 12.688 12.816C12.696 12.816 12.704 12.816 12.712 12.824C12.72 12.824 12.736 12.84 12.768 12.864C12.928 12.96 13.024 13.104 13.072 13.296C13.072 13.312 13.072 13.328 13.072 13.352C13.072 13.368 13.072 13.384 13.072 13.392C13.072 13.416 13.064 13.448 13.056 13.488C13.048 13.528 13.04 13.552 13.04 13.56C12.984 13.744 12.872 13.872 12.704 13.96C12.44 14.136 12.296 14.32 12.28 14.512C12.272 14.576 12.272 14.632 12.28 14.688C12.296 14.784 12.344 14.888 12.416 15C12.504 15.128 12.568 15.216 12.608 15.256C12.736 15.384 12.808 15.456 12.832 15.472C12.928 15.56 13.056 15.696 13.208 15.88C13.64 16.4 13.84 16.936 13.8 17.48C13.784 17.72 13.728 17.952 13.632 18.176C13.536 18.4 13.424 18.584 13.288 18.736C13.16 18.88 13.048 19 12.968 19.08C12.88 19.16 12.816 19.216 12.768 19.248L12.672 19.312C12.584 19.344 12.536 19.36 12.504 19.368C12.416 19.376 12.36 19.384 12.344 19.384H12.32C12.256 19.384 12.208 19.376 12.168 19.368C12.152 19.368 12.128 19.368 12.104 19.36C12.08 19.352 12.056 19.352 12.048 19.352C12.04 19.352 12.032 19.352 12.024 19.344C12.016 19.336 12.008 19.336 11.992 19.328C11.984 19.32 11.976 19.32 11.968 19.32C11.848 19.232 11.776 19.184 11.76 19.152C11.632 19.008 11.584 18.848 11.608 18.672C11.632 18.496 11.72 18.36 11.88 18.248L11.904 18.216C11.92 18.2 11.944 18.176 11.976 18.152L12.072 18.056L12.176 17.928L12.272 17.776L12.344 17.6L12.376 17.408C12.384 17.088 12.2 16.752 11.824 16.392C11.672 16.256 11.56 16.144 11.472 16.048C11.032 15.496 10.832 14.976 10.864 14.464ZM11.296 5.53602V3.88002C11.296 3.68802 11.368 3.52002 11.504 3.38402C11.64 3.24802 11.808 3.18402 11.992 3.18402C12.184 3.18402 12.352 3.24802 12.488 3.38402C12.624 3.52002 12.688 3.68802 12.688 3.88002V5.53602C12.688 5.72802 12.624 5.88002 12.488 6.00802C12.352 6.13602 12.192 6.19202 12 6.19202C11.808 6.19202 11.648 6.12802 11.512 6.00802C11.368 5.88002 11.296 5.72802 11.296 5.53602ZM13.984 14.344C14 14.168 14.056 14 14.144 13.832C14.232 13.664 14.32 13.52 14.424 13.408C14.528 13.296 14.624 13.192 14.728 13.104C14.824 13.016 14.904 12.952 14.968 12.904L15.072 12.848C15.088 12.832 15.12 12.816 15.152 12.784C15.24 12.752 15.344 12.728 15.456 12.728C15.728 12.728 15.928 12.832 16.072 13.032C16.112 13.088 16.136 13.144 16.152 13.216C16.16 13.232 16.168 13.256 16.168 13.28V13.368C16.168 13.616 16.048 13.808 15.808 13.928C15.552 14.096 15.416 14.28 15.392 14.48C15.36 14.752 15.544 15.072 15.936 15.44C16.64 16.056 16.96 16.728 16.92 17.44C16.904 17.68 16.848 17.912 16.752 18.136C16.656 18.36 16.536 18.544 16.408 18.696C16.272 18.848 16.168 18.96 16.096 19.04C16.024 19.12 15.952 19.168 15.896 19.208C15.768 19.288 15.656 19.328 15.568 19.336C15.544 19.344 15.504 19.344 15.448 19.344C15.208 19.344 15.024 19.264 14.896 19.104C14.776 18.968 14.728 18.808 14.744 18.632C14.76 18.456 14.848 18.312 15 18.208C15.024 18.2 15.072 18.16 15.144 18.096C15.216 18.032 15.288 17.928 15.376 17.792C15.456 17.648 15.504 17.512 15.512 17.368C15.528 17.048 15.336 16.712 14.952 16.352C14.624 16.064 14.368 15.752 14.2 15.424C14.008 15.088 13.936 14.72 13.984 14.344ZM15.816 7.36802C15.816 7.16802 15.88 7.00802 16 6.88802L17.168 5.70402C17.312 5.56802 17.472 5.50402 17.656 5.50402C17.848 5.50402 18.008 5.57602 18.144 5.71202C18.28 5.84802 18.352 6.01602 18.352 6.20002C18.352 6.40002 18.28 6.56802 18.144 6.69602L16.96 7.84802C16.816 7.98402 16.656 8.04802 16.472 8.04802C16.288 8.04802 16.128 7.98402 16.008 7.84802C15.88 7.72002 15.816 7.55202 15.816 7.36802ZM17.656 11.808C17.656 11.632 17.728 11.472 17.864 11.32C17.992 11.184 18.144 11.12 18.328 11.12H19.976C20.168 11.12 20.336 11.192 20.472 11.328C20.608 11.464 20.688 11.624 20.688 11.808C20.688 12 20.616 12.168 20.48 12.304C20.336 12.44 20.176 12.512 19.976 12.512H18.328C18.136 12.512 17.968 12.448 17.848 12.312C17.72 12.176 17.656 12.008 17.656 11.808Z" fill="#64748B"/>
</svg>
