<svg width="24" height="24" viewBox="0 0 24 24" fill="none" xmlns="http://www.w3.org/2000/svg">
<path d="M6.04785 13.752C6.04785 13.048 6.23985 12.24 6.62385 11.328C7.00785 10.416 7.50385 9.52798 8.11185 8.67998C9.35985 7.03198 10.4479 5.78398 11.3599 4.94398L11.9599 4.36798C12.1599 4.57598 12.3839 4.76798 12.6239 4.94398C12.9519 5.27998 13.4559 5.83198 14.1279 6.61598C14.7999 7.39998 15.3839 8.09598 15.8639 8.73598C16.4319 9.54398 16.9199 10.416 17.3119 11.336C17.7039 12.256 17.9039 13.064 17.9039 13.76C17.9039 14.56 17.7519 15.32 17.4399 16.048C17.1279 16.776 16.7119 17.408 16.1839 17.936C15.6559 18.464 15.0239 18.888 14.2879 19.2C13.5519 19.512 12.7759 19.672 11.9599 19.672C11.1599 19.672 10.3999 19.52 9.67185 19.216C8.94385 18.912 8.31185 18.504 7.78385 17.976C7.25585 17.456 6.83185 16.824 6.51985 16.096C6.20785 15.368 6.04785 14.584 6.04785 13.752ZM7.85585 11.408C7.85585 12.072 7.99185 12.6 8.27185 13C8.55185 13.392 8.97585 13.592 9.54385 13.592C10.1199 13.592 10.5439 13.392 10.8319 13C11.1119 12.608 11.2559 12.08 11.2639 11.408C11.2559 10.736 11.1119 10.208 10.8319 9.80798C10.5519 9.41598 10.1199 9.21598 9.54385 9.21598C8.97585 9.21598 8.55185 9.41598 8.27185 9.80798C7.99185 10.208 7.85585 10.736 7.85585 11.408ZM9.11185 11.408C9.11185 11.288 9.11185 11.192 9.11185 11.128C9.11185 11.064 9.11985 10.976 9.12785 10.864C9.13585 10.752 9.14385 10.664 9.16785 10.608C9.19185 10.552 9.20785 10.48 9.23985 10.416C9.27185 10.352 9.31185 10.296 9.35985 10.272C9.41585 10.24 9.47185 10.224 9.54385 10.224C9.65585 10.224 9.74385 10.256 9.80785 10.32C9.87185 10.384 9.91985 10.488 9.94385 10.624C9.96785 10.768 9.98385 10.88 9.99185 10.984C9.99985 11.088 9.99985 11.224 9.99985 11.4C9.99985 11.584 9.99985 11.72 9.99185 11.816C9.98385 11.912 9.96785 12.032 9.94385 12.176C9.91985 12.312 9.87185 12.416 9.80785 12.48C9.74385 12.544 9.65585 12.576 9.54385 12.576C9.47185 12.576 9.41585 12.56 9.35985 12.528C9.30385 12.496 9.26385 12.448 9.23985 12.384C9.20785 12.32 9.18385 12.248 9.16785 12.192C9.15185 12.128 9.13585 12.04 9.12785 11.936C9.11985 11.824 9.11185 11.736 9.11185 11.68C9.11185 11.624 9.11185 11.528 9.11185 11.408ZM9.58385 17.608H10.6399L14.6319 9.01598H13.5519L9.58385 17.608ZM13.0239 15.216C13.0319 15.888 13.1839 16.416 13.4639 16.816C13.7439 17.208 14.1759 17.408 14.7439 17.408C15.3199 17.408 15.7439 17.208 16.0239 16.816C16.3039 16.424 16.4399 15.888 16.4479 15.216C16.4399 14.544 16.3039 14.016 16.0239 13.624C15.7439 13.232 15.3199 13.032 14.7439 13.032C14.1759 13.032 13.7439 13.232 13.4639 13.624C13.1759 14.016 13.0319 14.544 13.0239 15.216ZM14.2799 15.216C14.2799 15.032 14.2799 14.896 14.2879 14.8C14.2959 14.704 14.3119 14.584 14.3359 14.44C14.3599 14.296 14.4079 14.2 14.4719 14.136C14.5359 14.072 14.6239 14.04 14.7359 14.04C14.8079 14.04 14.8719 14.056 14.9279 14.088C14.9839 14.12 15.0239 14.168 15.0559 14.24C15.0879 14.312 15.1119 14.376 15.1359 14.432C15.1599 14.488 15.1679 14.576 15.1759 14.688L15.1839 14.944V15.216C15.1839 15.344 15.1839 15.44 15.1839 15.496L15.1759 15.752L15.1359 16.008L15.0559 16.2L14.9279 16.352L14.7359 16.4C14.6239 16.4 14.5359 16.368 14.4719 16.304C14.4079 16.24 14.3599 16.136 14.3359 16C14.3119 15.856 14.2959 15.736 14.2879 15.64C14.2799 15.544 14.2799 15.4 14.2799 15.216Z" fill="#64748B"/>
</svg>
