<svg width="24" height="24" viewBox="0 0 24 24" fill="none" xmlns="http://www.w3.org/2000/svg">
<path d="M2.2002 12.288C2.2002 12.088 2.2802 11.904 2.4402 11.736C2.6162 11.584 2.8082 11.504 3.0002 11.504H4.8642C5.0802 11.504 5.2562 11.584 5.4002 11.736C5.5442 11.888 5.6162 12.08 5.6162 12.288C5.6162 12.52 5.5442 12.712 5.4002 12.864C5.2562 13.016 5.0722 13.096 4.8642 13.096H3.0002C2.7842 13.096 2.6002 13.016 2.4402 12.856C2.2802 12.688 2.2002 12.496 2.2002 12.288ZM4.8642 5.90398C4.8642 5.68798 4.9362 5.50398 5.0722 5.35998C5.2562 5.19998 5.4402 5.11998 5.6402 5.11998C5.8482 5.11998 6.0322 5.19998 6.1842 5.35198L7.4962 6.67198C7.6482 6.84798 7.7202 7.03198 7.7202 7.22398C7.7202 7.44798 7.6482 7.63998 7.5042 7.78398C7.3602 7.92798 7.1842 8.00798 6.9762 8.00798C6.7842 8.00798 6.5922 7.92798 6.4162 7.77598L5.0722 6.48798C4.9362 6.31998 4.8642 6.11998 4.8642 5.90398ZM6.4642 16.704C6.4642 16.48 6.5442 16.296 6.6962 16.16C6.8402 16.024 7.0162 15.952 7.2402 15.952H9.3442L11.8322 13.616C11.9122 13.552 12.0002 13.552 12.1042 13.616L14.6322 15.952H16.8482C17.0642 15.952 17.2482 16.024 17.4002 16.176C17.5522 16.32 17.6322 16.504 17.6322 16.712C17.6322 16.928 17.5522 17.112 17.4002 17.264C17.2482 17.416 17.0642 17.496 16.8482 17.496H14.1442C14.0642 17.496 13.9842 17.48 13.9122 17.44L11.9842 15.624L10.0722 17.44C10.0082 17.48 9.9362 17.496 9.8482 17.496H7.2402C7.0242 17.496 6.8402 17.416 6.6882 17.264C6.5362 17.104 6.4642 16.92 6.4642 16.704ZM7.2002 12.288C7.2002 13.064 7.3682 13.768 7.6962 14.4C7.7122 14.496 7.7842 14.544 7.8962 14.544H9.4002C9.4562 14.544 9.4962 14.52 9.5202 14.48C9.5442 14.432 9.5362 14.384 9.5042 14.328C8.9922 13.712 8.7362 13.032 8.7362 12.288C8.7362 11.392 9.0562 10.624 9.6962 9.99198C10.3362 9.35998 11.1042 9.04798 12.0082 9.04798C12.9042 9.04798 13.6642 9.35998 14.2962 9.99198C14.9282 10.624 15.2482 11.384 15.2482 12.288C15.2482 13.04 14.9922 13.72 14.4882 14.328C14.4562 14.384 14.4482 14.432 14.4642 14.48C14.4802 14.528 14.5202 14.544 14.5842 14.544H16.1042C16.2082 14.544 16.2722 14.496 16.2882 14.4C16.6402 13.784 16.8002 13.08 16.8002 12.288C16.8002 11.64 16.6722 11.016 16.4162 10.432C16.1602 9.83998 15.8162 9.33598 15.3922 8.90398C14.9682 8.47998 14.4562 8.13598 13.8642 7.87998C13.2722 7.62398 12.6562 7.50398 12.0082 7.50398C11.3602 7.50398 10.7362 7.63198 10.1442 7.87998C9.5522 8.13598 9.0402 8.47198 8.6082 8.90398C8.1762 9.32798 7.8322 9.83998 7.5762 10.432C7.3282 11.016 7.2002 11.632 7.2002 12.288ZM11.2242 5.11998V3.27998C11.2242 3.04798 11.2962 2.86398 11.4482 2.71198C11.6002 2.55998 11.7922 2.48798 12.0162 2.48798C12.2402 2.48798 12.4242 2.55998 12.5762 2.71198C12.7282 2.86398 12.8002 3.06398 12.8002 3.28798V5.12798C12.8002 5.35998 12.7282 5.54398 12.5762 5.69598C12.4322 5.83998 12.2402 5.91998 12.0162 5.91998C11.7842 5.91998 11.6002 5.84798 11.4482 5.69598C11.2962 5.54398 11.2242 5.35198 11.2242 5.11998ZM16.3042 7.23198C16.3042 7.03198 16.3762 6.84798 16.5202 6.67998L17.8162 5.35998C17.9682 5.20798 18.1602 5.12798 18.3762 5.12798C18.5922 5.12798 18.7842 5.20798 18.9282 5.35998C19.0802 5.51198 19.1522 5.69598 19.1522 5.91198C19.1522 6.14398 19.0802 6.33598 18.9442 6.49598L17.6002 7.78398C17.4322 7.93598 17.2402 8.01598 17.0402 8.01598C16.8242 8.01598 16.6482 7.94398 16.5122 7.79198C16.3762 7.63998 16.3042 7.45598 16.3042 7.23198ZM18.3922 12.288C18.3922 12.072 18.4642 11.888 18.6082 11.736C18.7522 11.584 18.9282 11.504 19.1362 11.504H21.0162C21.2322 11.504 21.4162 11.584 21.5682 11.736C21.7202 11.888 21.8002 12.08 21.8002 12.288C21.8002 12.512 21.7202 12.696 21.5682 12.856C21.4162 13.016 21.2322 13.096 21.0162 13.096H19.1362C18.9202 13.096 18.7442 13.016 18.6002 12.864C18.4642 12.704 18.3922 12.512 18.3922 12.288Z" fill="#64748B"/>
</svg>
