<svg width="24" height="24" viewBox="0 0 24 24" fill="none" xmlns="http://www.w3.org/2000/svg">
<path d="M2.3042 12.376C2.3042 12.152 2.3842 11.976 2.5442 11.832C2.6802 11.688 2.8642 11.624 3.0882 11.624H4.9362C5.1522 11.624 5.3282 11.696 5.4722 11.84C5.6082 11.984 5.6802 12.16 5.6802 12.376C5.6802 12.6 5.6082 12.792 5.4642 12.944C5.3202 13.096 5.1442 13.176 4.9362 13.176H3.0962C2.8802 13.176 2.6962 13.096 2.5442 12.936C2.3842 12.776 2.3042 12.592 2.3042 12.376ZM4.9362 6.08799C4.9362 5.86399 5.0002 5.67999 5.1362 5.54399C5.2962 5.38399 5.4802 5.30399 5.6962 5.30399C5.9282 5.30399 6.1042 5.38399 6.2402 5.54399L7.5362 6.84799C7.9042 7.19999 7.9042 7.55999 7.5362 7.92799C7.3842 8.07999 7.2162 8.15199 7.0162 8.15199C6.8402 8.15199 6.6642 8.07999 6.4722 7.92799L5.1442 6.63199C5.0082 6.48799 4.9362 6.30399 4.9362 6.08799ZM6.5122 16.712C6.5122 16.504 6.5922 16.32 6.7522 16.16C6.8962 16.016 7.0802 15.944 7.2962 15.944H9.8722C9.9602 15.944 10.0322 15.96 10.0962 16.008L11.9762 17.784L13.8882 16C13.9442 15.96 14.0242 15.936 14.1202 15.936H16.7602C16.9762 15.936 17.1602 16.008 17.3122 16.16C17.4642 16.312 17.5442 16.496 17.5442 16.704C17.5442 16.92 17.4642 17.104 17.3122 17.256C17.1602 17.408 16.9762 17.488 16.7602 17.488H14.6162L12.1042 19.76C12.0082 19.832 11.9202 19.832 11.8402 19.76L9.3762 17.488H7.2962C7.0802 17.488 6.8962 17.408 6.7442 17.256C6.5922 17.112 6.5122 16.928 6.5122 16.712ZM7.2642 12.376C7.2642 13.168 7.4162 13.872 7.7282 14.472C7.7762 14.56 7.8482 14.6 7.9442 14.6H9.4402C9.5042 14.6 9.5442 14.584 9.5602 14.544C9.5762 14.504 9.5522 14.456 9.5042 14.4C9.0322 13.808 8.7922 13.128 8.7922 12.376C8.7922 11.496 9.1042 10.744 9.7362 10.128C10.3682 9.51199 11.1282 9.19999 12.0162 9.19999C12.8962 9.19999 13.6482 9.51199 14.2802 10.128C14.9042 10.752 15.2242 11.496 15.2242 12.368C15.2242 13.12 14.9842 13.8 14.5122 14.392C14.4562 14.448 14.4402 14.496 14.4562 14.536C14.4722 14.576 14.5122 14.592 14.5762 14.592H16.0802C16.1842 14.592 16.2482 14.552 16.2722 14.464C16.6002 13.84 16.7682 13.136 16.7682 12.368C16.7682 11.736 16.6402 11.12 16.3922 10.536C16.1442 9.95199 15.8002 9.43999 15.3762 9.01599C14.9522 8.59199 14.4482 8.25599 13.8642 7.99999C13.2802 7.74399 12.6642 7.62399 12.0242 7.62399C11.3842 7.62399 10.7682 7.75199 10.1842 7.99999C9.6002 8.25599 9.0962 8.59199 8.6722 9.01599C8.2482 9.43999 7.9122 9.94399 7.6562 10.536C7.4002 11.128 7.2642 11.744 7.2642 12.376ZM11.2322 5.32799V3.46399C11.2322 3.24799 11.3122 3.06399 11.4642 2.91199C11.6162 2.75999 11.8002 2.67999 12.0162 2.67999C12.2322 2.67999 12.4162 2.75999 12.5682 2.91199C12.7202 3.06399 12.8002 3.24799 12.8002 3.46399V5.31999C12.8002 5.53599 12.7202 5.71999 12.5682 5.87199C12.4162 6.02399 12.2322 6.10399 12.0162 6.10399C11.8002 6.10399 11.6162 6.02399 11.4642 5.87199C11.3042 5.71999 11.2322 5.54399 11.2322 5.32799ZM16.2482 7.39199C16.2482 7.16799 16.3202 6.98399 16.4562 6.85599L17.7602 5.55199C17.8882 5.39199 18.0722 5.31199 18.3042 5.31199C18.5202 5.31199 18.7042 5.39199 18.8482 5.54399C18.9922 5.69599 19.0642 5.87999 19.0642 6.09599C19.0642 6.31999 19.0002 6.50399 18.8642 6.63999L17.5362 7.94399C17.3522 8.09599 17.1682 8.16799 16.9842 8.16799C16.7762 8.16799 16.6002 8.09599 16.4562 7.94399C16.3202 7.79199 16.2482 7.60799 16.2482 7.39199ZM18.3202 12.376C18.3202 12.16 18.3922 11.984 18.5282 11.84C18.6642 11.696 18.8482 11.624 19.0642 11.624H20.9202C21.1362 11.624 21.3202 11.696 21.4722 11.84C21.6242 11.984 21.7042 12.16 21.7042 12.376C21.7042 12.592 21.6242 12.776 21.4722 12.936C21.3202 13.096 21.1362 13.176 20.9202 13.176H19.0642C18.8562 13.176 18.6802 13.096 18.5362 12.944C18.3922 12.792 18.3202 12.6 18.3202 12.376Z" fill="#64748B"/>
</svg>
