<svg width="24" height="24" viewBox="0 0 24 24" fill="none" xmlns="http://www.w3.org/2000/svg">
<path d="M7.92822 15.648C7.92822 14.968 8.08822 14.336 8.40022 13.744C8.71222 13.152 9.15222 12.664 9.72022 12.272V4.33598C9.72022 3.69598 9.93622 3.15198 10.3762 2.71198C10.8162 2.27198 11.3602 2.03998 12.0002 2.03998C12.6482 2.03998 13.1922 2.26398 13.6322 2.70398C14.0722 3.15198 14.2962 3.68798 14.2962 4.32798V12.264C14.8642 12.656 15.2962 13.152 15.6082 13.736C15.9202 14.32 16.0722 14.96 16.0722 15.64C16.0722 16.376 15.8882 17.064 15.5282 17.688C15.1682 18.312 14.6722 18.808 14.0482 19.168C13.4242 19.528 12.7442 19.712 12.0002 19.712C11.2642 19.712 10.5842 19.528 9.96022 19.168C9.33622 18.808 8.84022 18.312 8.47222 17.688C8.10422 17.064 7.92822 16.384 7.92822 15.648ZM9.33622 15.648C9.33622 16.392 9.60022 17.032 10.1202 17.56C10.6402 18.088 11.2722 18.352 12.0082 18.352C12.7522 18.352 13.3922 18.088 13.9282 17.552C14.4642 17.016 14.7362 16.384 14.7362 15.656C14.7362 15.16 14.6082 14.696 14.3522 14.272C14.0962 13.848 13.7442 13.52 13.2962 13.288L13.0722 13.176C12.9922 13.144 12.9522 13.064 12.9522 12.944V4.33598C12.9522 4.07998 12.8642 3.86398 12.6802 3.68798C12.4962 3.51998 12.2722 3.43198 12.0002 3.43198C11.7442 3.43198 11.5202 3.51998 11.3362 3.68798C11.1522 3.85598 11.0642 4.07198 11.0642 4.33598V12.928C11.0642 13.048 11.0242 13.128 10.9522 13.16L10.7362 13.272C10.2962 13.504 9.95222 13.832 9.70422 14.256C9.45622 14.68 9.33622 15.136 9.33622 15.648ZM9.96022 15.648C9.96022 16.216 10.1522 16.704 10.5442 17.104C10.9362 17.504 11.4002 17.704 11.9522 17.704C12.5042 17.704 12.9762 17.504 13.3842 17.104C13.7922 16.704 13.9922 16.216 13.9922 15.656C13.9922 15.152 13.8162 14.704 13.4722 14.32C13.1282 13.936 12.7042 13.704 12.2082 13.64V7.75198C12.2082 7.70398 12.1842 7.64798 12.1282 7.59998C12.0722 7.54398 12.0162 7.51998 11.9522 7.51998C11.8802 7.51998 11.8242 7.54398 11.7842 7.58398C11.7442 7.63198 11.7202 7.67998 11.7202 7.75198V13.624C11.2322 13.696 10.8162 13.92 10.4722 14.304C10.1282 14.696 9.96022 15.136 9.96022 15.648Z" fill="#64748B"/>
</svg>
