<svg width="24" height="24" viewBox="0 0 24 24" fill="none" xmlns="http://www.w3.org/2000/svg">
<path d="M3.72021 12.4C3.72021 12.224 3.78421 12.072 3.90421 11.952C4.03221 11.832 4.18421 11.776 4.36021 11.776H14.0242C14.2002 11.776 14.3442 11.832 14.4562 11.952C14.5682 12.072 14.6322 12.224 14.6322 12.408C14.6322 12.584 14.5762 12.728 14.4562 12.84C14.3442 12.952 14.2002 13.016 14.0242 13.016H4.36021C4.18421 13.016 4.02421 12.96 3.90421 12.84C3.77621 12.72 3.72021 12.576 3.72021 12.4ZM5.64821 10.08C5.64821 9.90399 5.71221 9.75999 5.83221 9.63999C5.95221 9.51999 6.10421 9.45599 6.28021 9.45599H15.9522C16.1202 9.45599 16.2642 9.51999 16.3842 9.63999C16.5042 9.75999 16.5602 9.90399 16.5602 10.08C16.5602 10.256 16.5042 10.4 16.3842 10.528C16.2642 10.648 16.1202 10.712 15.9522 10.712H6.28821C6.11221 10.712 5.96021 10.648 5.84021 10.528C5.72021 10.408 5.64821 10.256 5.64821 10.08ZM6.94422 14.672C6.94422 14.504 7.00821 14.36 7.13621 14.24C7.24821 14.128 7.39221 14.064 7.56821 14.064H17.2482C17.4242 14.064 17.5762 14.12 17.6962 14.24C17.8162 14.352 17.8722 14.496 17.8722 14.672C17.8722 14.848 17.8082 15 17.6882 15.12C17.5682 15.24 17.4162 15.304 17.2402 15.304H7.56821C7.39221 15.304 7.24821 15.24 7.12021 15.12C6.99221 15 6.94422 14.848 6.94422 14.672ZM15.4082 12.4C15.4082 12.216 15.4642 12.064 15.5842 11.944C15.7042 11.824 15.8562 11.768 16.0402 11.768H19.6562C19.8402 11.768 19.9922 11.824 20.1122 11.944C20.2322 12.064 20.2882 12.216 20.2882 12.392C20.2882 12.568 20.2322 12.712 20.1122 12.824C19.9922 12.936 19.8402 13 19.6642 13H16.0482C15.8642 13 15.7122 12.944 15.5922 12.824C15.4642 12.72 15.4082 12.576 15.4082 12.4Z" fill="#64748B"/>
</svg>
